{
    "asset" : {
        "generator" : "Khronos glTF Blender I/O v1.4.40",
        "version" : "2.0"
    },
    "scene" : 0,
    "scenes" : [
        {
            "name" : "Scene",
            "nodes" : [
                0,
                1,
                2,
                3
            ]
        }
    ],
    "nodes" : [
        {
            "mesh" : 0,
            "name" : "node_MeshObject-601797504-PolyPaper18",
            "translation" : [
                0,
                0.271992564201355,
                0
            ]
        },
        {
            "mesh" : 1,
            "name" : "node_MeshObject-83077440-PolyGem25",
            "translation" : [
                0,
                0.271992564201355,
                0
            ]
        },
        {
            "name" : "Light",
            "rotation" : [
                0.16907575726509094,
                0.7558803558349609,
                -0.27217137813568115,
                0.570947527885437
            ],
            "translation" : [
                4.076245307922363,
                5.903861999511719,
                -1.0054539442062378
            ]
        },
        {
            "name" : "Camera",
            "rotation" : [
                0.483536034822464,
                0.33687159419059753,
                -0.20870360732078552,
                0.7804827094078064
            ],
            "translation" : [
                7.358891487121582,
                4.958309173583984,
                6.925790786743164
            ]
        }
    ],
    "materials" : [
        {
            "name" : "BlocksPaper",
            "pbrMetallicRoughness" : {
                "metallicFactor" : 0,
                "roughnessFactor" : 0.6000000238418579
            }
        },
        {
            "doubleSided" : true,
            "name" : "BlocksGem",
            "pbrMetallicRoughness" : {
                "baseColorFactor" : [
                    1,
                    0.4000000059604645,
                    1,
                    1
                ],
                "metallicFactor" : 0,
                "roughnessFactor" : 0.10000000149011612
            }
        }
    ],
    "meshes" : [
        {
            "name" : "mesh_m1-PolyPaper18_-356474",
            "primitives" : [
                {
                    "attributes" : {
                        "POSITION" : 0,
                        "NORMAL" : 1,
                        "COLOR_0" : 2
                    },
                    "indices" : 3,
                    "material" : 0
                }
            ]
        },
        {
            "name" : "mesh_m0-PolyGem25_-356476",
            "primitives" : [
                {
                    "attributes" : {
                        "POSITION" : 4,
                        "NORMAL" : 5,
                        "COLOR_0" : 6
                    },
                    "indices" : 7,
                    "material" : 1
                }
            ]
        }
    ],
    "accessors" : [
        {
            "bufferView" : 0,
            "componentType" : 5126,
            "count" : 13702,
            "max" : [
                0.4411140978336334,
                0.2401677370071411,
                0.3676151633262634
            ],
            "min" : [
                -1.0573943853378296,
                -0.2695554494857788,
                -0.45303910970687866
            ],
            "type" : "VEC3"
        },
        {
            "bufferView" : 1,
            "componentType" : 5126,
            "count" : 13702,
            "type" : "VEC3"
        },
        {
            "bufferView" : 2,
            "componentType" : 5123,
            "count" : 13702,
            "normalized" : true,
            "type" : "VEC4"
        },
        {
            "bufferView" : 3,
            "componentType" : 5123,
            "count" : 14484,
            "type" : "SCALAR"
        },
        {
            "bufferView" : 4,
            "componentType" : 5126,
            "count" : 10,
            "max" : [
                0.23443984985351562,
                0.1505880355834961,
                0.04514467716217041
            ],
            "min" : [
                -0.23443984985351562,
                -0.1323528289794922,
                -0.04190942645072937
            ],
            "type" : "VEC3"
        },
        {
            "bufferView" : 5,
            "componentType" : 5126,
            "count" : 10,
            "type" : "VEC3"
        },
        {
            "bufferView" : 6,
            "componentType" : 5123,
            "count" : 10,
            "normalized" : true,
            "type" : "VEC4"
        },
        {
            "bufferView" : 7,
            "componentType" : 5123,
            "count" : 12,
            "type" : "SCALAR"
        }
    ],
    "bufferViews" : [
        {
            "buffer" : 0,
            "byteLength" : 164424,
            "byteOffset" : 0
        },
        {
            "buffer" : 0,
            "byteLength" : 164424,
            "byteOffset" : 164424
        },
        {
            "buffer" : 0,
            "byteLength" : 109616,
            "byteOffset" : 328848
        },
        {
            "buffer" : 0,
            "byteLength" : 28968,
            "byteOffset" : 438464
        },
        {
            "buffer" : 0,
            "byteLength" : 120,
            "byteOffset" : 467432
        },
        {
            "buffer" : 0,
            "byteLength" : 120,
            "byteOffset" : 467552
        },
        {
            "buffer" : 0,
            "byteLength" : 80,
            "byteOffset" : 467672
        },
        {
            "buffer" : 0,
            "byteLength" : 24,
            "byteOffset" : 467752
        }
    ],
    "buffers" : [
        {
            "byteLength" : 467776,
            "uri" : "data:application/octet-stream;base64,"
        }
    ]
}
